<?xml version="1.0" encoding="UTF-8" standalone="no"?>
<!-- Created with Inkscape (http://www.inkscape.org/) -->

<svg
   xmlns:dc="http://purl.org/dc/elements/1.1/"
   xmlns:cc="http://creativecommons.org/ns#"
   xmlns:rdf="http://www.w3.org/1999/02/22-rdf-syntax-ns#"
   xmlns:svg="http://www.w3.org/2000/svg"
   xmlns="http://www.w3.org/2000/svg"
   xmlns:sodipodi="http://sodipodi.sourceforge.net/DTD/sodipodi-0.dtd"
   xmlns:inkscape="http://www.inkscape.org/namespaces/inkscape"
   width="765"
   height="990"
   id="svg3912"
   version="1.1"
   inkscape:version="0.48.5 r10040"
   sodipodi:docname="drawing-1.svg">
  <defs
     id="defs3914" />
  <sodipodi:namedview
     id="base"
     pagecolor="#ffffff"
     bordercolor="#666666"
     borderopacity="1.0"
     inkscape:pageopacity="0.0"
     inkscape:pageshadow="2"
     inkscape:zoom="2.8"
     inkscape:cx="61.048147"
     inkscape:cy="34.238997"
     inkscape:document-units="px"
     inkscape:current-layer="layer1"
     showgrid="false"
     units="mm"
     inkscape:window-width="1436"
     inkscape:window-height="856"
     inkscape:window-x="4"
     inkscape:window-y="0"
     inkscape:window-maximized="1" />
  <metadata
     id="metadata3917">
    <rdf:RDF>
      <cc:Work
         rdf:about="">
        <dc:format>image/svg+xml</dc:format>
        <dc:type
           rdf:resource="http://purl.org/dc/dcmitype/StillImage" />
        <dc:title></dc:title>
      </cc:Work>
    </rdf:RDF>
  </metadata>
  <g
     inkscape:label="Layer 1"
     inkscape:groupmode="layer"
     id="layer1"
     transform="translate(0,-62.361976)">
    <path
       inkscape:connector-curvature="0"
       id="path3925"
       style="font-size:144px;font-style:normal;font-weight:normal;line-height:125%;letter-spacing:0px;word-spacing:0px;fill:#000000;fill-opacity:1;stroke:none;font-family:sans-serif"
       d="m 15.835936,999.72921 0,38.46089 22.78125,0 c 7.640566,0 13.288998,-1.5703 16.945312,-4.7109 3.703054,-3.1875 5.554614,-8.0391 5.554688,-14.5547 -7.4e-5,-6.5625 -1.851634,-11.3906 -5.554688,-14.4844 -3.656314,-3.1406 -9.304746,-4.71089 -16.945312,-4.71089 l -22.78125,0 m 0,-43.17191 0,31.64062 21.023437,0 c 6.937444,6e-5 12.093689,-1.289 15.46875,-3.86718 3.421807,-2.62494 5.132743,-6.60931 5.132813,-11.95313 -7e-5,-5.29679 -1.711006,-9.25773 -5.132813,-11.88281 -3.375061,-2.62491 -8.531306,-3.93741 -15.46875,-3.9375 l -21.023437,0 m -14.2031249,-11.67188 36.2812499,0 c 10.828064,1.1e-4 19.171805,2.25011 25.03125,6.75 5.859294,4.5001 8.788978,10.89853 8.789062,19.19532 -8.4e-5,6.42194 -1.500082,11.53131 -4.5,15.32812 -3.000076,3.79693 -7.406322,6.16415 -13.21875,7.10155 6.984302,1.5001 12.398359,4.6407 16.242188,9.42189 3.890538,4.7344 5.835849,10.6641 5.835937,17.7891 -8.8e-5,9.375 -3.187585,16.6172 -9.5625,21.7265 -6.375072,5.1094 -15.445376,7.6641 -27.210937,7.6641 l -37.6874999,0 0,-104.97658" />
    <path
       inkscape:connector-curvature="0"
       id="path3927"
       style="font-size:144px;font-style:normal;font-weight:normal;line-height:125%;letter-spacing:0px;word-spacing:0px;fill:#000000;fill-opacity:1;stroke:none;font-family:sans-serif"
       d="m 145.42188,983.20574 c -1.45319,-0.84369 -3.04693,-1.45306 -4.78125,-1.82813 -1.68756,-0.42181 -3.56255,-0.63274 -5.625,-0.63281 -7.31254,7e-5 -12.93754,2.39069 -16.875,7.17187 -3.89066,4.73444 -5.83597,11.55474 -5.83594,20.46093 l 0,41.4844 -13.007819,0 0,-78.75001 13.007819,0 0,12.23437 c 2.71872,-4.78118 6.25778,-8.32024 10.61719,-10.61719 4.35933,-2.34367 9.6562,-3.51554 15.89062,-3.51562 0.89057,8e-5 1.87495,0.0704 2.95313,0.21094 1.07806,0.0938 2.27338,0.25789 3.58593,0.49218 l 0.0703,13.28907" />
    <path
       inkscape:connector-curvature="0"
       id="path3929"
       style="font-size:144px;font-style:normal;font-weight:normal;line-height:125%;letter-spacing:0px;word-spacing:0px;fill:#000000;fill-opacity:1;stroke:none;font-family:sans-serif"
       d="m 159.13281,971.11199 12.9375,0 0,78.75001 -12.9375,0 0,-78.75001 m 0,-30.65625 12.9375,0 0,16.38281 -12.9375,0 0,-16.38281" />
    <path
       inkscape:connector-curvature="0"
       id="path3931"
       style="font-size:144px;font-style:normal;font-weight:normal;line-height:125%;letter-spacing:0px;word-spacing:0px;fill:#000000;fill-opacity:1;stroke:none;font-family:sans-serif"
       d="m 250.89063,983.06511 0,-42.60937 12.9375,0 0,109.40626 -12.9375,0 0,-11.8125 c -2.71882,4.6875 -6.16413,8.1797 -10.33594,10.4765 -4.12505,2.25 -9.0938,3.375 -14.90625,3.375 -9.51566,0 -17.27346,-3.7968 -23.27344,-11.3906 -5.95313,-7.5937 -8.92969,-17.5781 -8.92969,-29.9531 0,-12.37499 2.97656,-22.35932 8.92969,-29.95313 5.99998,-7.59367 13.75778,-11.39054 23.27344,-11.39062 5.81245,8e-5 10.7812,1.14851 14.90625,3.44531 4.17181,2.25008 7.61712,5.71882 10.33594,10.40625 m -44.08594,27.49219 c -2e-5,9.5156 1.94529,16.9922 5.83594,22.4297 3.93747,5.3906 9.32809,8.0859 16.17187,8.0859 6.8437,0 12.23432,-2.6953 16.17188,-8.0859 3.93743,-5.4375 5.90618,-12.9141 5.90625,-22.4297 -7e-5,-9.5156 -1.96882,-16.96869 -5.90625,-22.35938 -3.93756,-5.43743 -9.32818,-8.15618 -16.17188,-8.15625 -6.84378,7e-5 -12.2344,2.71882 -16.17187,8.15625 -3.89065,5.39069 -5.83596,12.84378 -5.83594,22.35938" />
    <path
       inkscape:connector-curvature="0"
       id="path3933"
       style="font-size:144px;font-style:normal;font-weight:normal;line-height:125%;letter-spacing:0px;word-spacing:0px;fill:#000000;fill-opacity:1;stroke:none;font-family:sans-serif"
       d="m 357.83594,1007.2526 0,6.3281 -59.48438,0 c 0.56248,8.9063 3.23435,15.7032 8.01563,20.3907 4.82809,4.6406 11.53121,6.9609 20.10937,6.9609 4.9687,0 9.77338,-0.6094 14.41407,-1.8281 4.68743,-1.2188 9.32805,-3.0469 13.92187,-5.4844 l 0,12.2344 c -4.6407,1.9687 -9.3985,3.4687 -14.27344,4.5 -4.87505,1.0312 -9.82036,1.5468 -14.83593,1.5468 -12.56254,0 -22.52347,-3.6562 -29.88282,-10.9687 -7.31251,-7.3125 -10.96875,-17.2031 -10.96875,-29.6719 0,-12.89059 3.46874,-23.10929 10.40625,-30.65623 6.98435,-7.59367 16.38278,-11.39054 28.19532,-11.39062 10.59369,8e-5 18.96087,3.42195 25.10156,10.26562 6.18742,6.79694 9.28117,16.05474 9.28125,27.77343 m -12.9375,-3.7969 c -0.0938,-7.07799 -2.086,-12.72647 -5.97656,-16.94528 -3.84381,-4.21868 -8.95318,-6.32805 -15.32813,-6.32812 -7.21879,7e-5 -13.00784,2.03913 -17.36719,6.11719 -4.31252,4.07818 -6.79689,9.82032 -7.45312,17.22651 l 46.125,-0.07" />
    <path
       inkscape:connector-curvature="0"
       id="path3935"
       style="font-size:144px;font-style:normal;font-weight:normal;line-height:125%;letter-spacing:0px;word-spacing:0px;fill:#000000;fill-opacity:1;stroke:none;font-family:sans-serif"
       d="m 429.27344,973.4323 0,12.23437 c -3.65631,-1.87493 -7.45318,-3.28118 -11.39063,-4.21875 -3.93754,-0.93743 -8.01567,-1.40618 -12.23437,-1.40625 -6.42191,7e-5 -11.25003,0.98445 -14.48438,2.95313 -3.18752,1.96881 -4.78127,4.92193 -4.78125,8.85941 -2e-5,3 1.14842,5.3672 3.44532,7.1015 2.29684,1.68759 6.91403,3.30479 13.85156,4.85159 l 4.42969,0.9844 c 9.18744,1.9688 15.70306,4.7578 19.54687,8.3672 3.89056,3.5625 5.83587,8.5547 5.83594,14.9765 -7e-5,7.3125 -2.90632,13.1016 -8.71875,17.3672 -5.76568,4.2656 -13.71098,6.3984 -23.83594,6.3984 -4.21878,0 -8.62503,-0.4218 -13.21875,-1.2656 -4.54689,-0.7969 -9.35157,-2.0156 -14.41406,-3.6562 l 0,-13.3594 c 4.78124,2.4844 9.49217,4.3594 14.13281,5.625 4.6406,1.2188 9.23435,1.8281 13.78125,1.8281 6.09371,0 10.7812,-1.0312 14.0625,-3.0937 3.2812,-2.1094 4.92182,-5.0625 4.92188,-8.8594 -6e-5,-3.5156 -1.19537,-6.2109 -3.58594,-8.0859 -2.3438,-1.875 -7.52348,-3.6797 -15.53906,-5.4141 l -4.5,-1.0547 c -8.01565,-1.6875 -13.80471,-4.2656 -17.36719,-7.7344 -3.56251,-3.5155 -5.34376,-8.32019 -5.34375,-14.41399 -10e-6,-7.40622 2.62499,-13.12497 7.875,-17.15629 5.24998,-4.03117 12.7031,-6.04679 22.35937,-6.04687 4.78121,8e-5 9.28121,0.35164 13.5,1.05469 4.2187,0.7032 8.10932,1.75789 11.67188,3.16406" />
    <path
       inkscape:connector-curvature="0"
       id="path3937"
       style="font-size:144px;font-style:normal;font-weight:normal;line-height:125%;letter-spacing:0px;word-spacing:0px;fill:#000000;fill-opacity:1;stroke:none;font-family:sans-serif"
       d="m 515.47656,986.22917 c 3.2343,-5.81243 7.10148,-10.10149 11.60157,-12.86718 4.49991,-2.76555 9.79678,-4.14836 15.89062,-4.14844 8.20302,8e-5 14.53113,2.88289 18.98438,8.64844 4.453,5.71881 6.67956,13.87505 6.67968,24.46871 l 0,47.5313 -13.00781,0 0,-47.1094 c -1.1e-4,-7.54679 -1.33605,-13.14837 -4.00781,-16.80468 -2.67198,-3.65618 -6.75011,-5.4843 -12.23438,-5.48437 -6.70321,7e-5 -12.00008,2.22663 -15.89062,6.67969 -3.89071,4.45318 -5.83602,10.52347 -5.83594,18.21096 l 0,44.5078 -13.00781,0 0,-47.1094 c -7e-5,-7.59369 -1.336,-13.19524 -4.00781,-16.80468 -2.67194,-3.65618 -6.79693,-5.4843 -12.375,-5.48437 -6.60942,7e-5 -11.85941,2.25006 -15.75,6.75 -3.89066,4.45318 -5.83597,10.50006 -5.83594,18.14065 l 0,44.5078 -13.00781,0 0,-78.75001 13.00781,0 0,12.23437 c 2.95309,-4.82805 6.49215,-8.39055 10.61719,-10.6875 4.12496,-2.2968 9.02339,-3.44523 14.69531,-3.44531 5.71869,8e-5 10.57025,1.4532 14.55469,4.35937 4.03118,2.90633 7.00774,7.12507 8.92968,12.65625" />
    <path
       inkscape:connector-curvature="0"
       id="path3939"
       style="font-size:144px;font-style:normal;font-weight:normal;line-height:125%;letter-spacing:0px;word-spacing:0px;fill:#000000;fill-opacity:1;stroke:none;font-family:sans-serif"
       d="m 630.29688,1010.276 c -10.45317,1e-4 -17.69535,1.1954 -21.72657,3.586 -4.03127,2.3906 -6.04689,6.4688 -6.04687,12.2344 -2e-5,4.5937 1.49998,8.25 4.5,10.9687 3.04684,2.6719 7.17184,4.0078 12.375,4.0078 7.17183,0 12.91401,-2.5312 17.22656,-7.5937 4.35932,-5.1094 6.539,-11.8828 6.53906,-20.3203 l 0,-2.8829 -12.86718,0 m 25.80468,-5.3437 0,44.9297 -12.9375,0 0,-11.9531 c -2.95318,4.7812 -6.63286,8.3203 -11.03906,10.6171 -4.4063,2.25 -9.79691,3.375 -16.17187,3.375 -8.06253,0 -14.4844,-2.25 -19.26563,-6.75 -4.73438,-4.5468 -7.10157,-10.6171 -7.10156,-18.2109 -1e-5,-8.8593 2.95311,-15.539 8.85937,-20.0391 5.95311,-4.4999 14.81247,-6.7499 26.57813,-6.75 l 18.14062,0 0,-1.26559 c -6e-5,-5.9531 -1.96881,-10.5468 -5.90625,-13.78124 -3.89067,-3.28118 -9.37504,-4.9218 -16.45312,-4.92187 -4.50004,7e-5 -8.88284,0.53913 -13.14844,1.61719 -4.26565,1.07819 -8.3672,2.69537 -12.30469,4.85156 l 0,-11.95313 c 4.73436,-1.82805 9.32811,-3.18742 13.78125,-4.07812 4.4531,-0.93742 8.78903,-1.40617 13.00782,-1.40625 11.39057,8e-5 19.89837,2.9532 25.52343,8.85937 5.62493,5.90632 8.43743,14.85939 8.4375,26.85938" />
    <path
       inkscape:connector-curvature="0"
       id="path3941"
       style="font-size:144px;font-style:normal;font-weight:normal;line-height:125%;letter-spacing:0px;word-spacing:0px;fill:#000000;fill-opacity:1;stroke:none;font-family:sans-serif"
       d="m 682.82031,971.11199 12.9375,0 0,78.75001 -12.9375,0 0,-78.75001 m 0,-30.65625 12.9375,0 0,16.38281 -12.9375,0 0,-16.38281" />
    <path
       inkscape:connector-curvature="0"
       id="path3943"
       style="font-size:144px;font-style:normal;font-weight:normal;line-height:125%;letter-spacing:0px;word-spacing:0px;fill:#000000;fill-opacity:1;stroke:none;font-family:sans-serif"
       d="m 774.57813,983.06511 0,-42.60937 12.9375,0 0,109.40626 -12.9375,0 0,-11.8125 c -2.71882,4.6875 -6.16413,8.1797 -10.33594,10.4765 -4.12505,2.25 -9.0938,3.375 -14.90625,3.375 -9.51566,0 -17.27346,-3.7968 -23.27344,-11.3906 -5.95313,-7.5937 -8.92969,-17.5781 -8.92969,-29.9531 0,-12.37499 2.97656,-22.35932 8.92969,-29.95313 5.99998,-7.59367 13.75778,-11.39054 23.27344,-11.39062 5.81245,8e-5 10.7812,1.14851 14.90625,3.44531 4.17181,2.25008 7.61712,5.71882 10.33594,10.40625 m -44.08594,27.49219 c -2e-5,9.5156 1.94529,16.9922 5.83594,22.4297 3.93747,5.3906 9.32809,8.0859 16.17187,8.0859 6.8437,0 12.23432,-2.6953 16.17188,-8.0859 3.93743,-5.4375 5.90618,-12.9141 5.90625,-22.4297 -7e-5,-9.5156 -1.96882,-16.96869 -5.90625,-22.35938 -3.93756,-5.43743 -9.32818,-8.15618 -16.17188,-8.15625 -6.84378,7e-5 -12.2344,2.71882 -16.17187,8.15625 -3.89065,5.39069 -5.83596,12.84378 -5.83594,22.35938" />
  </g>
</svg>
